<svg xmlns="http://www.w3.org/2000/svg" width="31.154" height="25.289" viewBox="0 0 31.154 25.289"><defs><style>.a{fill:#1db7c4;}</style></defs><g transform="translate(224.533 -410.721)"><g transform="translate(-224.533 410.721)"><path class="a" d="M34.152,13.86H9.622A3.318,3.318,0,0,0,6.31,17.172V38.246a.909.909,0,0,0,.6.855.867.867,0,0,0,.3.048.891.891,0,0,0,.723-.361l4.215-5.371H34.152a3.318,3.318,0,0,0,3.312-3.312V17.172a3.318,3.318,0,0,0-3.312-3.312Zm1.505,16.257a1.511,1.511,0,0,1-1.505,1.505H11.705a.9.9,0,0,0-.711.343L8.116,35.621V17.172a1.511,1.511,0,0,1,1.505-1.505H34.152a1.511,1.511,0,0,1,1.505,1.505ZM32.045,19.671a.9.9,0,0,1-.9.9H19.834a.9.9,0,0,1,0-1.806H31.166a.9.9,0,0,1,.9.891Zm0,3.98a.9.9,0,0,1-.9.9H12.608a.9.9,0,1,1,0-1.806H31.166a.9.9,0,0,1,.9.891Zm0,3.98a.9.9,0,0,1-.9.9H12.608a.9.9,0,1,1,0-1.806H31.166a.9.9,0,0,1,.9.891Z" transform="translate(-6.31 -13.86)"/></g></g></svg>