<svg xmlns="http://www.w3.org/2000/svg" xmlns:xlink="http://www.w3.org/1999/xlink" width="629.625" height="155.836" viewBox="0 0 629.625 155.836"><defs><style>.a{fill:#1db7c4;}.b{fill:#fff;}.c{fill:url(#a);}</style><linearGradient id="a" y1="0.5" x2="1" y2="0.5" gradientUnits="objectBoundingBox"><stop offset="0" stop-color="#1db7c4"/><stop offset="1" stop-color="#33b5bf"/></linearGradient></defs><g transform="translate(-245.944 -341.893)"><g transform="translate(245.944 480.348)"><g transform="translate(0 0)"><circle class="a" cx="3.824" cy="3.824" r="3.824" transform="translate(491.736 3.995)"/><circle class="a" cx="3.824" cy="3.824" r="3.824" transform="translate(335.789 3.995)"/><circle class="a" cx="3.824" cy="3.824" r="3.824" transform="translate(136.929 3.995)"/><path class="b" d="M256.155,662.41h-6.281l-1.272,3.824h-2.658l6.02-17.1h2.1l6.02,17.1h-2.647Zm-.715-2.3-2.4-7.481H253l-2.4,7.481Z" transform="translate(-245.944 -648.994)"/><path class="b" d="M286.985,649.135h6.471a4.994,4.994,0,0,1,3.378,1.126,4.613,4.613,0,0,1,1.642,3.647,4.753,4.753,0,0,1-3.2,4.738l3.833,7.588h-2.98l-3.427-7.307h-3.212v7.307h-2.507Zm2.507,7.5h3.8a2.639,2.639,0,0,0,2.813-2.729,2.311,2.311,0,0,0-.832-1.94,2.824,2.824,0,0,0-1.845-.529h-3.94Z" transform="translate(-268.472 -648.994)"/><path class="b" d="M323.957,651.432h-4.54v-2.3h11.59v2.3h-4.543v14.8h-2.507Z" transform="translate(-286.274 -648.994)"/><path class="b" d="M354.61,649.135h2.508v17.1H354.61Z" transform="translate(-305.591 -648.994)"/><path class="b" d="M373.084,649.135h10.581v2.438h-8.073v5.057h6.891v2.3h-6.891v7.307h-2.507Z" transform="translate(-315.732 -648.994)"/><path class="b" d="M406.428,649.135h2.507v17.1h-2.507Z" transform="translate(-334.034 -648.994)"/><path class="b" d="M435.388,661.286a6.448,6.448,0,0,1-2.08,3.654,5.8,5.8,0,0,1-3.739,1.265,5.954,5.954,0,0,1-5.189-3.073q-.182-.387-.329-.739a4.938,4.938,0,0,1-.227-.914,46.56,46.56,0,0,1,0-7.952,4.828,4.828,0,0,1,.557-1.63,5.831,5.831,0,0,1,1.931-2.111,5.975,5.975,0,0,1,7.168.5,6.5,6.5,0,0,1,1.908,3.595h-2.662a3.785,3.785,0,0,0-1.115-1.763,3.224,3.224,0,0,0-2.048-.717,3.4,3.4,0,0,0-1.525.364,3.2,3.2,0,0,0-1.047.882,2.879,2.879,0,0,0-.648,1.422,21.132,21.132,0,0,0-.182,3.443,20.667,20.667,0,0,0,.182,3.42,2.9,2.9,0,0,0,.649,1.446,2.97,2.97,0,0,0,1.047.858,2.877,2.877,0,0,0,1.525.388,3.379,3.379,0,0,0,3.164-2.339Z" transform="translate(-343.49 -648.823)"/><path class="b" d="M459.26,649.135h2.508v17.1H459.26Z" transform="translate(-363.034 -648.994)"/><path class="b" d="M484.123,662.41h-6.282l-1.272,3.824h-2.658l6.02-17.1h2.1l6.02,17.1h-2.647Zm-.715-2.3-2.4-7.481h-.045l-2.4,7.481Z" transform="translate(-371.076 -648.994)"/><path class="b" d="M514,649.135h2.508V663.8h8.073v2.438H514Z" transform="translate(-393.082 -648.994)"/><g transform="translate(155.767)"><path class="b" d="M591.251,649.135h2.507v17.1h-2.507Z" transform="translate(-591.251 -648.994)"/><path class="b" d="M609.724,649.135h2.364l7.5,12.156h.046V649.135h2.508v17.1h-2.375l-7.49-12.156h-.045v12.156h-2.508Z" transform="translate(-601.391 -648.994)"/><path class="b" d="M651.61,651.432h-4.54v-2.3h11.59v2.3h-4.543v14.8H651.61Z" transform="translate(-621.89 -648.994)"/><path class="b" d="M682.263,649.135h10.581v2.438h-8.073v4.893h6.891v2.3h-6.891V663.8h8.073v2.438H682.263Z" transform="translate(-641.208 -648.994)"/><path class="b" d="M716.622,649.135h2.507V663.8H727.2v2.438h-10.58Z" transform="translate(-660.068 -648.994)"/><path class="b" d="M750.981,649.135h2.507V663.8h8.073v2.438h-10.58Z" transform="translate(-678.927 -648.994)"/><path class="b" d="M785.339,649.135h2.508v17.1h-2.508Z" transform="translate(-697.787 -648.994)"/><path class="b" d="M808.5,656.658h5.887v3.479a6.147,6.147,0,0,1-1.7,4.3,5.764,5.764,0,0,1-4.2,1.769,5.953,5.953,0,0,1-5.189-3.073q-.182-.387-.329-.739a4.931,4.931,0,0,1-.227-.914,46.569,46.569,0,0,1,0-7.952,4.829,4.829,0,0,1,.557-1.63,5.824,5.824,0,0,1,1.93-2.111,5.563,5.563,0,0,1,3.259-.962,5.5,5.5,0,0,1,3.906,1.466,6.514,6.514,0,0,1,1.908,3.6h-2.661a3.8,3.8,0,0,0-1.115-1.768,3.212,3.212,0,0,0-2.047-.719,3.394,3.394,0,0,0-1.523.364,3.2,3.2,0,0,0-1.046.882,2.876,2.876,0,0,0-.648,1.422,21.15,21.15,0,0,0-.182,3.443,20.684,20.684,0,0,0,.182,3.42,2.9,2.9,0,0,0,.649,1.446,2.97,2.97,0,0,0,1.047.858,2.877,2.877,0,0,0,1.525.388,3.156,3.156,0,0,0,2.424-1.035,3.66,3.66,0,0,0,.978-2.6V659.1H808.5Z" transform="translate(-707.242 -648.823)"/><path class="b" d="M841.032,649.135h10.581v2.438h-8.073v4.893h6.891v2.3h-6.891V663.8h8.073v2.438H841.032Z" transform="translate(-728.357 -648.994)"/><path class="b" d="M875.391,649.135h2.364l7.5,12.156h.045V649.135h2.508v17.1h-2.375l-7.49-12.156H877.9v12.156h-2.507Z" transform="translate(-747.216 -648.994)"/><path class="b" d="M927.047,661.286a6.45,6.45,0,0,1-2.08,3.654,5.8,5.8,0,0,1-3.739,1.265,5.954,5.954,0,0,1-5.189-3.073q-.182-.387-.329-.739a4.931,4.931,0,0,1-.227-.914,46.511,46.511,0,0,1,0-7.952,4.819,4.819,0,0,1,.557-1.63,5.824,5.824,0,0,1,1.931-2.111,5.974,5.974,0,0,1,7.168.5,6.5,6.5,0,0,1,1.908,3.595h-2.662a3.782,3.782,0,0,0-1.115-1.763,3.224,3.224,0,0,0-2.048-.717,3.4,3.4,0,0,0-1.525.364,3.2,3.2,0,0,0-1.047.882A2.875,2.875,0,0,0,918,654.07a21.1,21.1,0,0,0-.182,3.443,20.576,20.576,0,0,0,.182,3.42,2.9,2.9,0,0,0,.648,1.446,2.972,2.972,0,0,0,1.047.858,2.877,2.877,0,0,0,1.525.388,3.379,3.379,0,0,0,3.164-2.339Z" transform="translate(-769.13 -648.823)"/><path class="b" d="M950.92,649.135H961.5v2.438h-8.073v4.893h6.891v2.3h-6.891V663.8H961.5v2.438H950.92Z" transform="translate(-788.674 -648.994)"/></g><g transform="translate(352.298 0.141)"><path class="b" d="M1026.925,649.135h5.795a5.535,5.535,0,0,1,5.046,2.885,5.26,5.26,0,0,1,.76,2.017,35.965,35.965,0,0,1,.125,3.647,25.636,25.636,0,0,1-.193,3.847,4.433,4.433,0,0,1-.272.985,9.325,9.325,0,0,1-.466.88,5.857,5.857,0,0,1-2.023,1.994,5.606,5.606,0,0,1-3.147.844h-5.624Zm2.507,14.661h3a3.373,3.373,0,0,0,3.071-1.493,2.9,2.9,0,0,0,.535-1.4,30.627,30.627,0,0,0,.1-3.127q0-2.232-.1-3.2a2.991,2.991,0,0,0-.648-1.563,3.293,3.293,0,0,0-2.957-1.446h-3Z" transform="translate(-1026.925 -649.135)"/><path class="b" d="M1065.209,649.135h10.58v2.438h-8.073v4.893h6.891v2.3h-6.891V663.8h8.073v2.438h-10.58Z" transform="translate(-1047.939 -649.135)"/><path class="b" d="M1099.568,649.135h10.581v2.438h-8.073v5.057h6.891v2.3h-6.891v7.307h-2.507Z" transform="translate(-1066.799 -649.135)"/><path class="b" d="M1133.862,649.135h2.507v17.1h-2.507Z" transform="translate(-1085.623 -649.135)"/><path class="b" d="M1152.336,649.135h2.364l7.5,12.156h.045V649.135h2.508v17.1h-2.375l-7.49-12.156h-.045v12.156h-2.507Z" transform="translate(-1095.764 -649.135)"/><path class="b" d="M1193.506,649.135h2.507v17.1h-2.507Z" transform="translate(-1118.362 -649.135)"/><path class="b" d="M1212.695,651.432h-4.54v-2.3h11.59v2.3H1215.2v14.8h-2.507Z" transform="translate(-1126.403 -649.135)"/><path class="b" d="M1243.348,649.135h2.508v17.1h-2.508Z" transform="translate(-1145.72 -649.135)"/><path class="b" d="M1258,649.135h2.655l3.755,13.025h.045l3.767-13.025h2.654l-5.468,17.1h-1.951Z" transform="translate(-1153.762 -649.135)"/><path class="b" d="M1296.181,649.135h10.58v2.438h-8.074v4.893h6.892v2.3h-6.892V663.8h8.074v2.438h-10.58Z" transform="translate(-1174.721 -649.135)"/></g></g><g transform="translate(505.985 0.141)"><path class="b" d="M1377.833,662.41h-6.281l-1.272,3.824h-2.659l6.021-17.1h2.1l6.02,17.1h-2.647Zm-.715-2.3-2.4-7.481h-.046l-2.4,7.481Z" transform="translate(-1367.622 -649.135)"/><path class="b" d="M1408.663,649.135h2.364l7.5,12.156h.046V649.135h2.508v17.1h-2.375l-7.49-12.156h-.046v12.156h-2.507Z" transform="translate(-1390.149 -649.135)"/><path class="b" d="M1456.223,662.41h-6.282l-1.272,3.824h-2.658l6.021-17.1h2.1l6.02,17.1h-2.646Zm-.715-2.3-2.4-7.481h-.045l-2.4,7.481Z" transform="translate(-1410.65 -649.135)"/><path class="b" d="M1487.052,649.135h2.508V663.8h8.073v2.438h-10.581Z" transform="translate(-1433.177 -649.135)"/><path class="b" d="M1514.878,659.2l-4.984-10.065h2.658l3.511,7.587,3.511-7.587h2.659l-4.988,10.063v7.037h-2.367Z" transform="translate(-1445.715 -649.135)"/><path class="b" d="M1543.68,664.088l7.509-12.655h-7.448v-2.3h10.515v1.948l-7.776,12.713h7.776v2.438H1543.68Z" transform="translate(-1464.261 -649.135)"/><path class="b" d="M1578.3,649.135h10.581v2.438h-8.073v4.893h6.892v2.3h-6.892V663.8h8.073v2.438H1578.3Z" transform="translate(-1483.263 -649.135)"/><path class="b" d="M1612.658,649.135h6.471a4.994,4.994,0,0,1,3.378,1.126,4.614,4.614,0,0,1,1.643,3.647,4.753,4.753,0,0,1-3.2,4.738l3.833,7.588H1621.8l-3.427-7.307h-3.212v7.307h-2.507Zm2.507,7.5h3.8a2.639,2.639,0,0,0,2.813-2.729,2.31,2.31,0,0,0-.831-1.94,2.823,2.823,0,0,0-1.845-.529h-3.941Z" transform="translate(-1502.123 -649.135)"/></g></g><g transform="translate(248.863 341.893)"><g transform="translate(0 0.07)"><path class="c" d="M302.687,342.049,333.83,461.838H314.817l-6.3-26.676H277.376l-2.149,8.776a23.486,23.486,0,0,1-22.812,17.9h0l31.492-119.789Zm1.05,73.484-10.5-43.957h-.234l-10.848,43.957Z" transform="translate(-252.415 -342.049)"/><path class="b" d="M592.159,342.049a31.455,31.455,0,0,1,14.988,3.691,34.025,34.025,0,0,1,12.014,11.073,58.022,58.022,0,0,1,7.932,18.455,104.892,104.892,0,0,1,2.857,26,117.265,117.265,0,0,1-2.333,24.159,63.452,63.452,0,0,1-7.057,19.126,37.421,37.421,0,0,1-11.78,12.667,29.681,29.681,0,0,1-16.621,4.613H556.234V342.049Zm-1.283,97.643a17.159,17.159,0,0,0,7.7-1.845,17.679,17.679,0,0,0,6.649-6.124,35.194,35.194,0,0,0,4.665-11.157,69.04,69.04,0,0,0,1.75-16.777,99.32,99.32,0,0,0-1.225-16.358,40.415,40.415,0,0,0-4.024-12.5,20.237,20.237,0,0,0-7.407-7.97,21.735,21.735,0,0,0-11.373-2.768H574.546v75.5Z" transform="translate(-419.182 -342.049)"/><path class="b" d="M794.226,342.049l31.143,119.789H806.356l-6.3-26.676H768.915l-2.149,8.776a23.486,23.486,0,0,1-22.812,17.9h0l31.492-119.789Zm1.05,73.484-10.5-43.957h-.233L773.7,415.533Z" transform="translate(-522.222 -342.049)"/></g><path class="c" d="M477.839,419.634l-13.531-16.485V495.56h18.235V432.78A20.721,20.721,0,0,0,477.839,419.634Z" transform="translate(-368.724 -375.517)"/><path class="b" d="M482.543,341.893H464.308v8.522a15.549,15.549,0,0,0,3.791,10.176l14.444,16.693Z" transform="translate(-368.724 -341.893)"/><path class="b" d="M1051.845,441.873q2.915,4.364,7.232,4.362a9.034,9.034,0,0,0,7.465-3.775,29.908,29.908,0,0,0,4.666-9.227,63.21,63.21,0,0,0,2.508-11.66q.757-6.2.991-11.073l-.233-.335q-3.384,7.046-7.932,10.067a18.7,18.7,0,0,1-20.762-.252,28.474,28.474,0,0,1-8.515-8.808,39.821,39.821,0,0,1-4.782-12.247A64.444,64.444,0,0,1,1030.967,385a66.417,66.417,0,0,1,2.041-16.861,45.725,45.725,0,0,1,5.832-13.589,30.425,30.425,0,0,1,9.04-9.144,21.211,21.211,0,0,1,11.664-3.356q9.329,0,15.339,5.285a37.415,37.415,0,0,1,9.622,13.925,75.4,75.4,0,0,1,5.016,19.545,172.371,172.371,0,0,1,1.4,21.978,137.442,137.442,0,0,1-1.75,21.81,81.209,81.209,0,0,1-5.6,19.713,40.763,40.763,0,0,1-9.915,14.26,21.366,21.366,0,0,1-14.813,5.452A22.541,22.541,0,0,1,1041,455.63a34.16,34.16,0,0,1-5.716-10.234,54.106,54.106,0,0,1-2.915-13.757h3.349a17.352,17.352,0,0,1,15.216,8.739Q1051.359,441.146,1051.845,441.873Zm14-38.336a13.919,13.919,0,0,0,4.082-4.782,25.439,25.439,0,0,0,2.45-6.962,40.962,40.962,0,0,0,.816-8.3,36.683,36.683,0,0,0-.875-7.969,26.879,26.879,0,0,0-2.566-7.047,15.172,15.172,0,0,0-4.141-4.949,9.066,9.066,0,0,0-5.6-1.845,8.246,8.246,0,0,0-5.249,1.845,15.474,15.474,0,0,0-3.966,4.866,25.4,25.4,0,0,0-2.449,6.878,37.937,37.937,0,0,0-.817,7.885,42.829,42.829,0,0,0,.758,8.137,28.034,28.034,0,0,0,2.274,7.047,14.5,14.5,0,0,0,3.908,5.033,8.56,8.56,0,0,0,5.54,1.929A9.724,9.724,0,0,0,1065.843,403.537Z" transform="translate(-679.765 -341.979)"/><path class="b" d="M1192.637,373.842q2.39-11.659,6.474-18.707t9.506-10.066a23.586,23.586,0,0,1,23.095,0q5.425,3.02,9.565,10.066t6.532,18.707q2.389,11.662,2.391,28.773,0,17.616-2.391,29.444t-6.532,18.874q-4.142,7.046-9.565,10.066a23.589,23.589,0,0,1-23.095,0q-5.423-3.02-9.506-10.066t-6.474-18.874q-2.391-11.828-2.39-29.444Q1190.247,385.5,1192.637,373.842Zm14.406,40.937a92.034,92.034,0,0,0,1.458,13.757,35.831,35.831,0,0,0,3.907,11.324,8.429,8.429,0,0,0,7.7,4.7,8.645,8.645,0,0,0,7.873-4.7,34.956,34.956,0,0,0,3.966-11.324,92.421,92.421,0,0,0,1.458-13.757q.232-7.13.233-12.163,0-3.021-.058-7.3t-.467-8.808q-.411-4.529-1.167-8.975a35.134,35.134,0,0,0-2.275-7.969,16.748,16.748,0,0,0-3.849-5.7,8.065,8.065,0,0,0-5.715-2.181,7.857,7.857,0,0,0-5.657,2.181,16.5,16.5,0,0,0-3.732,5.7,39.357,39.357,0,0,0-2.275,7.969,86.679,86.679,0,0,0-1.167,8.975q-.349,4.531-.407,8.808t-.059,7.3Q1206.809,407.647,1207.043,414.778Z" transform="translate(-767.194 -341.979)"/><path class="b" d="M1351.918,373.842q2.389-11.659,6.473-18.707t9.506-10.066a23.586,23.586,0,0,1,23.095,0q5.425,3.02,9.565,10.066t6.532,18.707q2.389,11.662,2.391,28.773,0,17.616-2.391,29.444t-6.532,18.874q-4.142,7.046-9.565,10.066a23.589,23.589,0,0,1-23.095,0q-5.423-3.02-9.506-10.066t-6.473-18.874q-2.393-11.828-2.391-29.444Q1349.527,385.5,1351.918,373.842Zm14.4,40.937a92.034,92.034,0,0,0,1.458,13.757,35.825,35.825,0,0,0,3.907,11.324,8.429,8.429,0,0,0,7.7,4.7,8.645,8.645,0,0,0,7.873-4.7,34.953,34.953,0,0,0,3.966-11.324,92.437,92.437,0,0,0,1.458-13.757q.232-7.13.233-12.163,0-3.021-.058-7.3t-.466-8.808q-.411-4.529-1.167-8.975a35.134,35.134,0,0,0-2.275-7.969,16.749,16.749,0,0,0-3.849-5.7,8.065,8.065,0,0,0-5.715-2.181,7.856,7.856,0,0,0-5.657,2.181,16.5,16.5,0,0,0-3.732,5.7,39.341,39.341,0,0,0-2.275,7.969,86.679,86.679,0,0,0-1.167,8.975q-.349,4.531-.407,8.808t-.059,7.3Q1366.089,407.647,1366.323,414.778Z" transform="translate(-854.623 -341.979)"/><path class="b" d="M1511.2,373.842q2.389-11.659,6.473-18.707t9.506-10.066a23.586,23.586,0,0,1,23.095,0q5.425,3.02,9.565,10.066t6.532,18.707q2.389,11.662,2.391,28.773,0,17.616-2.391,29.444t-6.532,18.874q-4.143,7.046-9.565,10.066a23.589,23.589,0,0,1-23.095,0q-5.423-3.02-9.506-10.066t-6.473-18.874q-2.393-11.828-2.391-29.444Q1508.805,385.5,1511.2,373.842Zm14.4,40.937a92.034,92.034,0,0,0,1.458,13.757,35.828,35.828,0,0,0,3.907,11.324,8.429,8.429,0,0,0,7.7,4.7,8.645,8.645,0,0,0,7.873-4.7,34.953,34.953,0,0,0,3.966-11.324,92.485,92.485,0,0,0,1.458-13.757q.231-7.13.233-12.163,0-3.021-.058-7.3t-.467-8.808q-.411-4.529-1.167-8.975a35.128,35.128,0,0,0-2.275-7.969,16.738,16.738,0,0,0-3.849-5.7,8.065,8.065,0,0,0-5.715-2.181,7.857,7.857,0,0,0-5.657,2.181,16.514,16.514,0,0,0-3.732,5.7,39.365,39.365,0,0,0-2.276,7.969,86.713,86.713,0,0,0-1.166,8.975q-.349,4.531-.407,8.808t-.059,7.3Q1525.367,407.647,1525.6,414.778Z" transform="translate(-942.052 -341.979)"/></g></g></svg>